<?xml version="1.0" encoding="UTF-8" standalone="no"?>
<!-- Uploaded to: SVG Repo, www.svgrepo.com, Transformed by: SVG Repo Mixer Tools -->

<svg
   width="256px"
   height="256px"
   viewBox="-1.92 -1.92 27.84 27.84"
   id="Layer_1"
   data-name="Layer 1"
   fill="#00adee"
   transform="rotate(0)matrix(1, 0, 0, 1, 0, 0)"
   version="1.1"
   sodipodi:docname="cinemaChairBlue.svg"
   inkscape:version="1.3 (0e150ed, 2023-07-21)"
   xmlns:inkscape="http://www.inkscape.org/namespaces/inkscape"
   xmlns:sodipodi="http://sodipodi.sourceforge.net/DTD/sodipodi-0.dtd"
   xmlns="http://www.w3.org/2000/svg"
   xmlns:svg="http://www.w3.org/2000/svg">
  <defs
     id="defs7" />
  <sodipodi:namedview
     id="namedview7"
     pagecolor="#505050"
     bordercolor="#eeeeee"
     borderopacity="1"
     inkscape:showpageshadow="0"
     inkscape:pageopacity="0"
     inkscape:pagecheckerboard="0"
     inkscape:deskcolor="#505050"
     inkscape:zoom="2.1015625"
     inkscape:cx="128"
     inkscape:cy="128"
     inkscape:window-width="1366"
     inkscape:window-height="736"
     inkscape:window-x="0"
     inkscape:window-y="0"
     inkscape:window-maximized="1"
     inkscape:current-layer="Layer_1" />
  <g
     id="SVGRepo_bgCarrier"
     stroke-width="0" />
  <g
     id="SVGRepo_tracerCarrier"
     stroke-linecap="round"
     stroke-linejoin="round" />
  <g
     id="SVGRepo_iconCarrier">
    <defs
       id="defs1">
      <style
         id="style1">.cls-1{fill:none;stroke:#00adee;stroke-miterlimit:10;stroke-width:0.768;}</style>
    </defs>
    <path
       class="cls-1"
       d="M9.14,1.5h5.73a2.86,2.86,0,0,1,2.86,2.86v9.55a0,0,0,0,1,0,0H6.27a0,0,0,0,1,0,0V4.36A2.86,2.86,0,0,1,9.14,1.5Z"
       id="path1" />
    <path
       class="cls-1"
       d="M1.5,10.09H6.27a0,0,0,0,1,0,0v3.34a2.39,2.39,0,0,1-2.39,2.39h0A2.39,2.39,0,0,1,1.5,13.43V10.09A0,0,0,0,1,1.5,10.09Z"
       id="path2" />
    <path
       class="cls-1"
       d="M17.73,10.09H22.5a0,0,0,0,1,0,0v3.34a2.39,2.39,0,0,1-2.39,2.39h0a2.39,2.39,0,0,1-2.39-2.39V10.09A0,0,0,0,1,17.73,10.09Z"
       id="path3" />
    <path
       class="cls-1"
       d="M4.6,15.7h0a2.08,2.08,0,0,0-.23.95,2,2,0,0,0,2,2H17.61a2,2,0,0,0,2-2,2.08,2.08,0,0,0-.23-.95,0,0,0,0,1,0,0"
       id="path4" />
    <polyline
       class="cls-1"
       points="17.79 13.98 17.73 13.91 6.27 13.91 6.21 13.98"
       id="polyline4" />
    <line
       class="cls-1"
       x1="7.23"
       y1="22.5"
       x2="7.23"
       y2="18.68"
       id="line4" />
    <line
       class="cls-1"
       x1="16.77"
       y1="22.5"
       x2="16.77"
       y2="18.68"
       id="line5" />
    <line
       class="cls-1"
       x1="5.32"
       y1="22.5"
       x2="9.14"
       y2="22.5"
       id="line6" />
    <line
       class="cls-1"
       x1="14.86"
       y1="22.5"
       x2="18.68"
       y2="22.5"
       id="line7" />
  </g>
</svg>
